<svg width="499" height="212" viewBox="0 0 499 212" fill="none" xmlns="http://www.w3.org/2000/svg">
    <path d="M89.904 167.104H0.912V130.816L84.144 4.096H131.376V130.816H157.584V167.104H131.376V208H89.904V167.104ZM89.904 60.544H89.328L44.112 130.816H89.904V60.544ZM173.941 106.048C173.941 93.952 174.998 81.664 177.11 69.184C179.414 56.704 183.35 45.376 188.918 35.2C194.678 25.024 202.454 16.768 212.246 10.432C222.038 3.90399 234.518 0.639992 249.686 0.639992C264.854 0.639992 277.334 3.90399 287.126 10.432C296.918 16.768 304.598 25.024 310.166 35.2C315.926 45.376 319.862 56.704 321.974 69.184C324.278 81.664 325.43 93.952 325.43 106.048C325.43 118.144 324.278 130.432 321.974 142.912C319.862 155.392 315.926 166.72 310.166 176.896C304.598 187.072 296.918 195.424 287.126 201.952C277.334 208.288 264.854 211.456 249.686 211.456C234.518 211.456 222.038 208.288 212.246 201.952C202.454 195.424 194.678 187.072 188.918 176.896C183.35 166.72 179.414 155.392 177.11 142.912C174.998 130.432 173.941 118.144 173.941 106.048ZM217.142 106.048C217.142 111.424 217.334 117.856 217.718 125.344C218.294 132.832 219.638 140.032 221.75 146.944C223.862 153.856 227.03 159.712 231.254 164.512C235.67 169.312 241.814 171.712 249.686 171.712C257.366 171.712 263.414 169.312 267.83 164.512C272.246 159.712 275.51 153.856 277.622 146.944C279.734 140.032 280.982 132.832 281.366 125.344C281.942 117.856 282.23 111.424 282.23 106.048C282.23 100.672 281.942 94.24 281.366 86.752C280.982 79.264 279.734 72.064 277.622 65.152C275.51 58.24 272.246 52.384 267.83 47.584C263.414 42.784 257.366 40.384 249.686 40.384C241.814 40.384 235.67 42.784 231.254 47.584C227.03 52.384 223.862 58.24 221.75 65.152C219.638 72.064 218.294 79.264 217.718 86.752C217.334 94.24 217.142 100.672 217.142 106.048ZM430.779 167.104H341.787V130.816L425.019 4.096H472.251V130.816H498.459V167.104H472.251V208H430.779V167.104ZM430.779 60.544H430.203L384.987 130.816H430.779V60.544Z" fill="#211048"/>
</svg>
