<svg width="141" height="141" viewBox="0 0 141 141" fill="none" xmlns="http://www.w3.org/2000/svg">
    <path d="M103.761 108.861C103.283 109.338 102.704 109.697 102.028 109.944L101.346 110.148C101.346 110.148 9.37648 147.256 2.22529 140.079C-4.9259 132.901 32.516 41.0678 32.516 41.0678L32.7233 40.3866C32.9721 39.7115 33.334 39.1334 33.8123 38.6567C39.5333 32.9565 59.8313 44.0501 79.1469 63.4362C98.4625 82.8223 109.482 103.161 103.761 108.861Z" fill="url(#paint0_linear)"/>
    <path d="M98.0391 111.467C93.199 113.386 83.5075 117.185 72.0639 121.438C65.0648 124.039 57.4096 126.811 49.808 129.423C43.1652 131.705 36.5623 133.871 30.478 135.695C26.2978 132.182 22.1435 128.372 18.0736 124.287C14.0037 120.203 10.2088 116.034 6.71094 111.841C8.55748 105.764 10.7469 99.1684 13.054 92.5342C15.6935 84.9421 18.4927 77.2971 21.12 70.3076C25.4142 58.8795 29.2485 49.2022 31.1852 44.3689C43.5252 51.0606 56.7115 60.9569 69.1278 73.4185C81.5443 85.8804 91.3925 99.1026 98.0391 111.467Z" fill="url(#paint1_linear)"/>
    <path d="M103.76 108.86C103.283 109.338 102.702 109.696 102.027 109.944L101.345 110.147C101.345 110.147 100.156 110.627 98.0391 111.466C93.1989 113.386 83.5075 117.185 72.0639 121.437C65.0647 124.039 57.4095 126.81 49.808 129.422C43.2009 124.439 36.5786 118.682 30.162 112.242C23.7454 105.802 18.013 99.1588 13.0537 92.5337C15.6932 84.9416 18.4924 77.2966 21.1197 70.3072C25.4139 58.879 29.2482 49.2017 31.1849 44.3684C32.0323 42.2543 32.5164 41.0671 32.5164 41.0671L32.7221 40.3864C32.9729 39.7116 33.3326 39.1321 33.8125 38.6565C39.5338 32.956 59.8298 44.0505 79.1468 63.4349C98.4613 82.823 109.482 103.159 103.76 108.86Z" fill="url(#paint2_linear)"/>
    <path d="M103.76 108.86C103.283 109.338 102.702 109.696 102.027 109.944L101.346 110.147C101.346 110.147 100.156 110.627 98.0392 111.466C93.199 113.386 83.5076 117.185 72.064 121.437C62.7494 115.303 53.2078 107.529 44.0838 98.3714C34.9597 89.2139 27.2204 79.6441 21.1201 70.3074C25.4143 58.8792 29.2486 49.2019 31.1853 44.3687C32.0327 42.2545 32.5168 41.0673 32.5168 41.0673L32.7225 40.3867C32.9732 39.7118 33.3329 39.1323 33.8129 38.6568C39.5342 32.9562 59.8302 44.0507 79.1472 63.4352C98.4614 82.823 109.482 103.159 103.76 108.86Z" fill="url(#paint3_linear)"/>
    <path d="M103.761 108.862C98.0386 114.563 77.741 103.469 58.4253 84.0831C39.1097 64.6967 28.0896 44.3592 33.8117 38.6576C39.5338 32.9559 59.8315 44.0498 79.1471 63.4362C98.4627 82.8226 109.483 103.16 103.761 108.862Z" fill="url(#paint4_linear)"/>
    <path d="M100.194 103.636C95.9666 107.848 78.8462 97.5188 61.9547 80.5656C45.0631 63.6125 34.7967 46.4547 39.0239 42.2427C43.2511 38.0306 60.3716 48.3596 77.2631 65.3128C94.1546 82.2659 104.421 99.4237 100.194 103.636Z" fill="url(#paint5_linear)"/>
    <path d="M103.762 108.861C109.483 103.161 98.4631 82.8227 79.1472 63.4366C67.8211 52.0692 56.1587 43.5553 47.2939 39.6042C47.6401 40.2412 48.0263 40.8727 48.4579 41.4953C49.1593 42.5072 49.9804 43.4295 50.9049 44.2611L55.8098 49.2C55.2444 49.4566 54.7249 49.6595 54.2881 49.8135C53.506 50.0891 53.0481 50.8981 53.2118 51.7109L54.9475 60.3324C55.1009 61.0946 55.6356 61.6735 56.3038 61.9265L103.393 109.188C103.522 109.086 103.645 108.977 103.762 108.861Z" fill="url(#paint6_linear)"/>
    <path d="M72.4507 82.0748L77.2674 87.8329L99.7049 110.352C101.42 110.304 102.798 109.822 103.761 108.862C108.761 103.88 100.977 87.7212 86.0439 70.7874C81.3907 72.7307 76.9547 75.2745 72.8582 78.4022C71.7009 79.2852 71.5165 80.9582 72.4507 82.0748Z" fill="url(#paint7_linear)"/>
    <path d="M77.2674 87.8326L72.4507 82.0745C71.5165 80.9579 71.7009 79.2852 72.858 78.4016C87.7854 67.005 107.202 63.3033 125.336 68.5189C129.9 69.8313 134.27 71.6718 138.361 74.0016C139.626 74.7224 140.032 76.3566 139.255 77.588L135.247 83.936C134.521 85.087 133.022 85.463 131.835 84.7978C128.695 83.0389 125.347 81.643 121.851 80.6377C107.669 76.559 92.4912 79.4049 80.7636 88.2327C79.6766 89.0507 78.1402 88.876 77.2674 87.8326Z" fill="url(#paint8_linear)"/>
    <path d="M35.6446 28.0541L31.2711 23.554C29.2888 21.5142 28.6919 18.2308 29.8495 15.7343C31.1934 12.8355 34.4187 11.9859 37.0164 13.8463C39.2539 15.4487 40.3521 18.5999 39.6319 21.3516L38.0433 27.4224C37.7626 28.4951 36.4176 28.8495 35.6446 28.0541Z" fill="url(#paint9_linear)"/>
    <path d="M27.9091 32.9411L21.699 32.0387C18.8843 31.6298 16.4098 29.3904 15.806 26.7056C15.1049 23.5881 17.1441 20.9489 20.3374 20.8408C23.0877 20.7476 25.879 22.5765 26.9851 25.1972L29.4255 30.9784C29.8571 32 29.0064 33.1006 27.9091 32.9411Z" fill="url(#paint10_linear)"/>
    <path d="M111.055 105.128L117.305 104.562C120.138 104.306 123.065 105.908 124.276 108.379C125.682 111.248 124.312 114.289 121.232 115.137C118.578 115.867 115.438 114.737 113.753 112.445L110.036 107.389C109.38 106.496 109.951 105.227 111.055 105.128Z" fill="url(#paint11_linear)"/>
    <path d="M112.127 96.0404L116.738 91.783C118.827 89.8532 122.125 89.3404 124.591 90.561C127.455 91.9785 128.222 95.2242 126.296 97.7738C124.637 99.9698 121.459 100.987 118.726 100.197L112.698 98.4545C111.633 98.1465 111.313 96.7926 112.127 96.0404Z" fill="url(#paint12_linear)"/>
    <path d="M57.7164 61.9637C56.4935 62.358 55.2013 61.5922 54.9478 60.3326L53.2121 51.7111C53.0484 50.898 53.5063 50.0893 54.2884 49.8137C55.2024 49.4916 56.4725 48.9616 57.7855 48.1543C53.8201 46.8452 50.5934 44.5754 48.4585 41.4955C44.4336 35.6888 44.1181 29.1436 47.6141 23.9872C51.0736 18.8846 57.4659 16.3953 63.522 17.7934C70.1426 19.3217 74.7931 25.1146 75.962 33.2899C76.0107 33.6302 76.0538 33.9689 76.0911 34.3062C77.7154 33.3546 79.0278 32.1807 79.8498 30.8666C81.9305 27.5409 82.1279 22.5777 80.3535 18.2225C79.2272 15.4583 77.4884 13.3445 75.5274 12.2811C74.6527 11.807 74.1865 10.823 74.421 9.85622L76.4094 1.65693C76.714 0.401203 78.0516 -0.321492 79.2584 0.140767C84.8235 2.27208 89.4024 7.01217 92.0313 13.4639C95.3352 21.5722 94.764 30.803 90.5403 37.5544C87.1986 42.8958 81.0355 46.8801 73.9092 48.5643C72.3085 51.9113 69.9129 54.8515 66.7708 57.2604C63.4155 59.8321 59.9395 61.2471 57.7164 61.9637ZM60.188 30.025C59.3633 30.0236 58.4778 30.4342 58.0514 31.0635C57.4145 32.0029 58.261 33.5022 58.8222 34.312C59.5919 35.4226 61.384 36.2511 63.6414 36.6222C63.6088 36.1195 63.5546 35.6039 63.4788 35.0748C63.076 32.2581 62.0318 30.3911 60.6854 30.0803C60.5253 30.0433 60.358 30.0253 60.188 30.025Z" fill="url(#paint13_radial)"/>
    <path d="M85.1293 43.3775L76.0904 34.3057C76.0904 34.3057 76.6677 43.0654 73.9082 48.5641C78.1108 47.571 81.9778 45.7773 85.1293 43.3775Z" fill="url(#paint14_linear)"/>
    <path d="M58.8212 34.3119C58.4101 33.7186 57.8483 32.7562 57.8262 31.9141L45.1992 31.8911C45.2188 35.0874 46.3095 38.3965 48.4574 41.4954C50.5923 44.5756 53.8187 46.8454 57.7844 48.1542C57.7844 48.1542 64.2561 46.191 63.6406 36.6221C61.383 36.2511 59.5909 35.4225 58.8212 34.3119Z" fill="url(#paint15_linear)"/>
    <path d="M85.5971 63.0295C82.6659 64.9397 80.1647 67.4558 78.2709 70.3991C77.8448 71.061 76.862 71.0594 76.4384 70.3958C74.5551 67.4456 72.0636 64.9203 69.139 62.9994C68.4899 62.5731 68.4918 61.6035 69.1424 61.1797C72.0735 59.2695 74.5745 56.7534 76.4686 53.8101C76.8943 53.1482 77.8775 53.1499 78.301 53.8134C80.1843 56.7636 82.6761 59.2889 85.6004 61.2098C86.2495 61.6361 86.2476 62.6057 85.5971 63.0295Z" fill="url(#paint16_linear)"/>
    <path d="M139.194 59.1755C136.263 61.0857 133.761 63.6018 131.868 66.5451C131.442 67.207 130.459 67.2053 130.035 66.5418C128.152 63.5916 125.66 61.0663 122.736 59.1454C122.087 58.7191 122.089 57.7495 122.739 57.3257C125.67 55.4155 128.171 52.8994 130.065 49.9561C130.491 49.2942 131.474 49.2958 131.898 49.9594C133.781 52.9096 136.273 55.4349 139.197 57.3558C139.846 57.7818 139.844 58.7514 139.194 59.1755Z" fill="url(#paint17_linear)"/>
    <path d="M114.094 16.3682C111.163 18.2783 108.662 20.7944 106.768 23.7378C106.342 24.3996 105.359 24.398 104.935 23.7344C103.052 20.7842 100.561 18.2589 97.6361 16.338C96.987 15.9117 96.9889 14.9421 97.6394 14.5183C100.571 12.6082 103.072 10.092 104.966 7.14869C105.391 6.48682 106.375 6.48848 106.798 7.15201C108.681 10.1022 111.173 12.6275 114.097 14.5484C114.747 14.9747 114.745 15.9443 114.094 16.3682Z" fill="url(#paint18_linear)"/>
    <path d="M111.378 45.887C109.241 47.2796 107.418 49.1137 106.037 51.2591C105.727 51.7415 105.01 51.7402 104.701 51.2566C103.329 49.106 101.512 47.2652 99.3804 45.8649C98.9074 45.5541 98.9085 44.8475 99.3829 44.5384C101.52 43.1458 103.343 41.3117 104.723 39.1663C105.034 38.6838 105.751 38.6849 106.059 39.1688C107.432 41.3194 109.248 43.1602 111.38 44.5605C111.853 44.8713 111.852 45.5779 111.378 45.887Z" fill="url(#paint19_linear)"/>
    <path d="M120.08 29.3018C117.943 30.6944 116.12 32.5285 114.739 34.6739C114.429 35.1563 113.712 35.155 113.404 34.6714C112.031 32.5207 110.214 30.68 108.083 29.2797C107.61 28.9689 107.611 28.2623 108.085 27.9532C110.222 26.5606 112.045 24.7265 113.426 22.5811C113.736 22.0986 114.453 22.0997 114.761 22.5836C116.134 24.7342 117.951 26.575 120.082 27.9753C120.555 28.286 120.554 28.9927 120.08 29.3018Z" fill="url(#paint20_linear)"/>
    <defs>
        <linearGradient id="paint0_linear" x1="19.4877" y1="68.9742" x2="60.4126" y2="127.87" gradientUnits="userSpaceOnUse">
            <stop stop-color="#FFE548"/>
            <stop offset="0.1758" stop-color="#FFDE50"/>
            <stop offset="0.4446" stop-color="#FFCA65"/>
            <stop offset="0.7709" stop-color="#FFAA87"/>
            <stop offset="1" stop-color="#FF90A4"/>
        </linearGradient>
        <linearGradient id="paint1_linear" x1="51.3661" y1="115.145" x2="43.4645" y2="142.965" gradientUnits="userSpaceOnUse">
            <stop stop-color="#FBA5C2" stop-opacity="0"/>
            <stop offset="0.3857" stop-color="#FCA0BA" stop-opacity="0.386"/>
            <stop offset="0.9737" stop-color="#FF91A5" stop-opacity="0.974"/>
            <stop offset="1" stop-color="#FF90A4"/>
        </linearGradient>
        <linearGradient id="paint2_linear" x1="59.3042" y1="98.5523" x2="49.5196" y2="133.654" gradientUnits="userSpaceOnUse">
            <stop stop-color="#FBA5C2" stop-opacity="0"/>
            <stop offset="0.3857" stop-color="#FCA0BA" stop-opacity="0.386"/>
            <stop offset="0.9737" stop-color="#FF91A5" stop-opacity="0.974"/>
            <stop offset="1" stop-color="#FF90A4"/>
        </linearGradient>
        <linearGradient id="paint3_linear" x1="65.8016" y1="79.4882" x2="53.5788" y2="119.442" gradientUnits="userSpaceOnUse">
            <stop stop-color="#FBA5C2" stop-opacity="0"/>
            <stop offset="0.3857" stop-color="#FCA0BA" stop-opacity="0.386"/>
            <stop offset="0.9737" stop-color="#FF91A5" stop-opacity="0.974"/>
            <stop offset="1" stop-color="#FF90A4"/>
        </linearGradient>
        <linearGradient id="paint4_linear" x1="72.7557" y1="64.8159" x2="59.8073" y2="93.9334" gradientUnits="userSpaceOnUse">
            <stop stop-color="#FFE548"/>
            <stop offset="0.1758" stop-color="#FFDE50"/>
            <stop offset="0.4446" stop-color="#FFCA65"/>
            <stop offset="0.7709" stop-color="#FFAA87"/>
            <stop offset="1" stop-color="#FF90A4"/>
        </linearGradient>
        <linearGradient id="paint5_linear" x1="60.5427" y1="86.8189" x2="78.8132" y2="58.8334" gradientUnits="userSpaceOnUse">
            <stop stop-color="#FFD00D" stop-opacity="0"/>
            <stop offset="1" stop-color="#DB722B"/>
        </linearGradient>
        <linearGradient id="paint6_linear" x1="77.4693" y1="74.5469" x2="66.0504" y2="39.4962" gradientUnits="userSpaceOnUse">
            <stop stop-color="#FFD00D" stop-opacity="0"/>
            <stop offset="1" stop-color="#DB722B"/>
        </linearGradient>
        <linearGradient id="paint7_linear" x1="91.0409" y1="93.8814" x2="81.8238" y2="78.7309" gradientUnits="userSpaceOnUse">
            <stop stop-color="#A34A9E" stop-opacity="0"/>
            <stop offset="1" stop-color="#343168"/>
        </linearGradient>
        <linearGradient id="paint8_linear" x1="105.552" y1="89.1445" x2="105.972" y2="66.0461" gradientUnits="userSpaceOnUse">
            <stop stop-color="#A34A9E"/>
            <stop offset="1" stop-color="#343168"/>
        </linearGradient>
        <linearGradient id="paint9_linear" x1="33.4144" y1="19.6861" x2="38.492" y2="21.8956" gradientUnits="userSpaceOnUse">
            <stop stop-color="#3FA9F5"/>
            <stop offset="1" stop-color="#666AD6"/>
        </linearGradient>
        <linearGradient id="paint10_linear" x1="21.1595" y1="27.6155" x2="26.5289" y2="26.274" gradientUnits="userSpaceOnUse">
            <stop stop-color="#A34A9E"/>
            <stop offset="1" stop-color="#343168"/>
        </linearGradient>
        <linearGradient id="paint11_linear" x1="118.462" y1="108.781" x2="105.183" y2="116.787" gradientUnits="userSpaceOnUse">
            <stop stop-color="#FF4974"/>
            <stop offset="0.4497" stop-color="#FE4773"/>
            <stop offset="0.6292" stop-color="#FC406D"/>
            <stop offset="0.7605" stop-color="#F73464"/>
            <stop offset="0.8683" stop-color="#F12257"/>
            <stop offset="0.9606" stop-color="#E80C46"/>
            <stop offset="1" stop-color="#E4003D"/>
        </linearGradient>
        <linearGradient id="paint12_linear" x1="120.855" y1="92.3258" x2="114.655" y2="110.061" gradientUnits="userSpaceOnUse">
            <stop stop-color="#C4F8B6"/>
            <stop offset="1" stop-color="#3B8EAC"/>
        </linearGradient>
        <radialGradient id="paint13_radial" cx="0" cy="0" r="1" gradientUnits="userSpaceOnUse" gradientTransform="translate(47.1287 10.3129) rotate(0.114591) scale(55.5038)">
            <stop stop-color="#FF4974"/>
            <stop offset="0.4497" stop-color="#FE4773"/>
            <stop offset="0.6292" stop-color="#FC406D"/>
            <stop offset="0.7605" stop-color="#F73464"/>
            <stop offset="0.8683" stop-color="#F12257"/>
            <stop offset="0.9606" stop-color="#E80C46"/>
            <stop offset="1" stop-color="#E4003D"/>
        </radialGradient>
        <linearGradient id="paint14_linear" x1="86.6553" y1="49.8852" x2="66.6483" y2="35.4136" gradientUnits="userSpaceOnUse">
            <stop stop-color="#E4003D" stop-opacity="0"/>
            <stop offset="0.3434" stop-color="#CD0E2D" stop-opacity="0.343"/>
            <stop offset="1" stop-color="#972E07"/>
        </linearGradient>
        <linearGradient id="paint15_linear" x1="56.2912" y1="39.5509" x2="61.8854" y2="44.7462" gradientUnits="userSpaceOnUse">
            <stop stop-color="#E4003D" stop-opacity="0"/>
            <stop offset="0.3434" stop-color="#CD0E2D" stop-opacity="0.343"/>
            <stop offset="1" stop-color="#972E07"/>
        </linearGradient>
        <linearGradient id="paint16_linear" x1="74.5173" y1="58.3148" x2="83.74" y2="70.6631" gradientUnits="userSpaceOnUse">
            <stop stop-color="#3FA9F5"/>
            <stop offset="1" stop-color="#666AD6"/>
        </linearGradient>
        <linearGradient id="paint17_linear" x1="128.115" y1="54.4701" x2="137.337" y2="66.8184" gradientUnits="userSpaceOnUse">
            <stop stop-color="#3FA9F5"/>
            <stop offset="1" stop-color="#666AD6"/>
        </linearGradient>
        <linearGradient id="paint18_linear" x1="103.023" y1="11.6586" x2="112.245" y2="24.0068" gradientUnits="userSpaceOnUse">
            <stop stop-color="#A34A9E"/>
            <stop offset="1" stop-color="#343168"/>
        </linearGradient>
        <linearGradient id="paint19_linear" x1="103.301" y1="42.459" x2="110.024" y2="51.4605" gradientUnits="userSpaceOnUse">
            <stop stop-color="#C4F8B6"/>
            <stop offset="1" stop-color="#3B8EAC"/>
        </linearGradient>
        <linearGradient id="paint20_linear" x1="112.006" y1="25.8751" x2="118.729" y2="34.8766" gradientUnits="userSpaceOnUse">
            <stop stop-color="#FFE548"/>
            <stop offset="0.1758" stop-color="#FFDE50"/>
            <stop offset="0.4446" stop-color="#FFCA65"/>
            <stop offset="0.7709" stop-color="#FFAA87"/>
            <stop offset="1" stop-color="#FF90A4"/>
        </linearGradient>
    </defs>
</svg>
