<svg width="164" height="125" viewBox="0 0 164 125" fill="none" xmlns="http://www.w3.org/2000/svg">
    <g clip-path="url(#clip0)">
        <path d="M67.4919 93.9255H84.2508V102.58H67.4919V93.9255Z" fill="url(#paint0_linear)"/>
        <path d="M67.4919 93.9255V38.632C67.4919 36.0737 69.5657 34 72.1239 34H108.425C110.983 34 113.057 36.0737 113.057 38.632V93.9255C113.057 96.4836 110.983 98.5575 108.425 98.5575H72.1239C69.5657 98.5575 67.4919 96.4837 67.4919 93.9255Z" fill="url(#paint1_linear)"/>
        <path d="M75.9638 83.6809L81.0283 78.6164C84.442 75.2026 84.442 69.6677 81.0283 66.254C80.0986 65.3244 78.5915 65.3244 77.662 66.254L68.0052 75.9109C67.8303 76.0857 67.66 76.2643 67.4919 76.4445V93.9255C67.4919 96.4836 69.5657 98.5575 72.1239 98.5575H82.9022C83.4706 97.2508 83.7902 95.8127 83.7995 94.2992C83.8301 89.2908 80.518 85.0529 75.9638 83.6809Z" fill="url(#paint2_linear)"/>
        <path d="M108.425 34H102.618C105.176 34 107.25 36.0737 107.25 38.632V93.9255C107.25 96.4837 105.176 98.5575 102.618 98.5575H108.425C110.983 98.5575 113.057 96.4837 113.057 93.9255V38.632C113.057 36.0737 110.983 34 108.425 34V34Z" fill="url(#paint3_linear)"/>
        <path d="M71.6727 90.7168V41.8409C71.6727 39.6742 73.4291 37.9178 75.5959 37.9178H104.953C107.119 37.9178 108.876 39.6742 108.876 41.8409V90.7166C108.876 92.8834 107.119 94.6398 104.953 94.6398H75.596C73.4293 94.6399 71.6727 92.8834 71.6727 90.7168Z" fill="url(#paint4_linear)"/>
        <path d="M75.9639 83.6809L81.0284 78.6164C84.4422 75.2027 84.4422 69.6678 81.0284 66.2541C80.0988 65.3244 78.5917 65.3244 77.6622 66.2541L71.6731 72.2431V90.7166C71.6731 92.8833 73.4295 94.6397 75.5963 94.6397H83.7889C83.7931 94.5264 83.7991 94.4134 83.7998 94.299C83.8303 89.2908 80.5181 85.053 75.9639 83.6809Z" fill="url(#paint5_linear)"/>
        <path d="M107.25 38.6615V93.896C108.235 93.1833 108.876 92.0251 108.876 90.7166V41.8409C108.876 40.5324 108.235 39.3744 107.25 38.6615Z" fill="url(#paint6_linear)"/>
        <path d="M106.014 60.3839C106.014 59.1497 105.014 58.149 103.78 58.149H78.4512C77.2169 58.149 76.2163 59.1497 76.2163 60.3839C76.2163 60.9705 76.4426 61.504 76.8122 61.9027L79.7414 72.9351C80.2077 74.6914 81.7974 75.9141 83.6145 75.9141H98.6163C100.267 75.9141 101.731 74.9045 102.334 73.4024C102.815 73.4017 103.295 73.218 103.662 72.8513C104.397 72.1162 104.397 70.9245 103.662 70.1895L103.312 69.8388L105.419 61.9028C105.788 61.504 106.014 60.9705 106.014 60.3839Z" fill="url(#paint7_linear)"/>
        <path d="M96.888 74.1862H81.8862C80.0691 74.1862 78.4794 72.9635 78.0131 71.2072L75.0795 60.1581C74.7649 58.9733 75.6582 57.812 76.8841 57.812H101.89C103.116 57.812 104.009 58.9733 103.695 60.1581L100.761 71.2073C100.295 72.9635 98.7052 74.1862 96.888 74.1862Z" fill="url(#paint8_linear)"/>
        <path d="M103.729 59.3496C103.576 58.4965 102.83 57.8126 101.89 57.8126H76.8843C75.9444 57.8126 75.1988 58.4965 75.0461 59.3496C74.9983 59.6083 75.007 59.8825 75.0799 60.1585L75.6225 62.2018C75.7546 62.6988 76.1987 63.0594 76.713 63.0616H76.7229H88.5183L97.1323 71.6756C96.5289 73.177 95.0657 74.1865 93.4145 74.1865H96.8878C98.7052 74.1865 100.295 72.9636 100.761 71.2078L102.977 62.8611L103.695 60.1584C103.768 59.8825 103.776 59.6083 103.729 59.3496ZM99.4508 63.0617L98.2741 67.4937L93.842 63.0617H99.4508Z" fill="url(#paint9_linear)"/>
        <path d="M102.052 56.4211H76.7231C75.4889 56.4211 74.4883 57.4218 74.4883 58.656C74.4883 59.8903 75.4889 60.8909 76.7231 60.8909H102.052C103.286 60.8909 104.286 59.8903 104.286 58.656C104.287 57.4218 103.286 56.4211 102.052 56.4211Z" fill="url(#paint10_linear)"/>
        <path d="M102.052 56.4211H98.5784C99.8126 56.4211 100.813 57.4218 100.813 58.656C100.813 59.8903 99.8126 60.8909 98.5784 60.8909H102.052C103.286 60.8909 104.287 59.8903 104.287 58.656C104.287 57.4218 103.286 56.4211 102.052 56.4211Z" fill="url(#paint11_linear)"/>
        <path d="M83.5262 72.4888H82.5465C82.0464 72.4888 81.5997 72.1621 81.4622 71.6812C81.4185 71.5283 81.3811 71.3703 81.3505 71.2077L80.3442 65.844C80.2136 65.1478 80.7477 64.504 81.4562 64.504H82.8933C83.4701 64.504 83.9545 64.9378 84.0178 65.5111L84.6477 71.2077C84.6482 71.2124 84.6487 71.2171 84.6492 71.2218C84.7252 71.8961 84.2049 72.4888 83.5262 72.4888Z" fill="url(#paint12_linear)"/>
        <path d="M97.3182 64.5041C98.0266 64.5041 98.5608 65.1477 98.4302 65.844L97.424 71.2078C97.3933 71.3703 97.3559 71.5284 97.3122 71.6812C97.1747 72.1621 96.7281 72.4888 96.2279 72.4888H95.2482C94.5696 72.4888 94.0493 71.8963 94.1252 71.2218C94.1257 71.2172 94.1262 71.2125 94.1267 71.2078L94.7566 65.5111C94.8199 64.9379 95.3043 64.5041 95.881 64.5041H97.3182Z" fill="url(#paint13_linear)"/>
        <path d="M90.0514 64.5041C90.6927 64.5041 91.2058 65.0365 91.1819 65.6774L90.9764 71.2078C90.9739 71.277 90.971 71.3453 90.968 71.4127C90.9408 72.0155 90.4413 72.4888 89.8379 72.4888H88.9364C88.3331 72.4888 87.8336 72.0155 87.8064 71.4127C87.8034 71.3453 87.8006 71.277 87.798 71.2078L87.5925 65.6774C87.5687 65.0365 88.0817 64.5041 88.723 64.5041H90.0514Z" fill="url(#paint14_linear)"/>
        <path d="M89.3875 60.8112C90.5778 60.8112 91.5428 59.8462 91.5428 58.6559C91.5428 57.4656 90.5778 56.5006 89.3875 56.5006C88.1971 56.5006 87.2322 57.4656 87.2322 58.6559C87.2322 59.8462 88.1971 60.8112 89.3875 60.8112Z" fill="url(#paint15_linear)"/>
        <path d="M88.3153 57.5042C87.5803 58.2392 87.5803 59.431 88.3153 60.166L99.2726 71.1233C100.008 71.8583 101.199 71.8583 101.934 71.1233C102.669 70.3882 102.669 69.1965 101.934 68.4615L90.9771 57.5042C90.2421 56.7692 89.0503 56.7692 88.3153 57.5042Z" fill="url(#paint16_linear)"/>
        <path d="M73.2955 81.0123L78.36 75.9478C81.7737 72.5341 81.7737 66.9992 78.36 63.5855C77.4304 62.6558 75.9232 62.6558 74.9937 63.5855L65.3369 73.2423C61.3405 77.2388 59.0952 82.6592 59.0952 88.3111V102.58H69.9658C76.0485 102.58 81.0941 97.7131 81.1313 91.6306C81.1617 86.6221 77.8497 82.3842 73.2955 81.0123Z" fill="url(#paint17_linear)"/>
        <path d="M73.2953 81.0123L78.3599 75.9478C81.7736 72.5341 81.7736 66.9992 78.3599 63.5855C77.4302 62.6558 75.9231 62.6558 74.9936 63.5855L73.6523 64.9268C75.9149 68.3226 75.549 72.9518 72.553 75.9478L69.8393 78.6616C68.7892 79.7117 68.9713 81.4692 70.2233 82.2677C73.3081 84.235 75.3482 87.6948 75.3243 91.6306C75.2871 97.7131 70.2415 102.58 64.1588 102.58H69.9656C76.0483 102.58 81.0939 97.7131 81.1311 91.6306C81.1616 86.6221 77.8495 82.3842 73.2953 81.0123Z" fill="url(#paint18_linear)"/>
        <path d="M84.5872 108H58.7585C57.7556 108 56.9427 107.187 56.9427 106.184V104.66C56.9427 103.099 58.2086 101.833 59.77 101.833H83.576C85.1374 101.833 86.4033 103.099 86.4033 104.66V106.184C86.403 107.187 85.59 108 84.5872 108Z" fill="url(#paint19_linear)"/>
    </g>
    <path d="M69.1328 34.3425C62.726 30.8734 57.465 25.4806 54.0802 18.9137C52.7652 16.3621 49.2346 16.3621 47.9193 18.9137C44.5347 25.4806 39.2735 30.8734 32.8669 34.3425C30.3775 35.6905 30.3775 39.3093 32.8669 40.6575C39.2737 44.1266 44.5347 49.5194 47.9195 56.0863C49.2346 58.6379 52.7652 58.6379 54.0805 56.0863C57.4652 49.5194 62.7262 44.1269 69.1331 40.6575C71.6222 39.3095 71.6222 35.6907 69.1328 34.3425Z" fill="url(#paint20_linear)"/>
    <path d="M69.1239 34.3426C62.6271 30.8746 57.2915 25.4845 53.8578 18.9207C52.5272 16.3775 48.9421 16.3507 47.6136 18.8951C47.5949 18.931 47.5759 18.967 47.557 19.003C46.6685 20.69 46.8583 22.7459 48.0153 24.2573C51.1984 28.4157 55.2397 31.8687 59.8739 34.3424C62.3786 35.6794 62.3786 39.3202 59.8739 40.6575C55.2397 43.1311 51.1984 46.5842 48.0153 50.7425C46.8583 52.2542 46.6685 54.31 47.557 55.9969C47.5759 56.0328 47.5949 56.0688 47.6136 56.1048C48.9421 58.6494 52.527 58.6225 53.8576 56.0791C57.2912 49.5153 62.6269 44.1252 69.1237 40.6572C71.6252 39.3226 71.6252 35.678 69.1239 34.3426Z" fill="url(#paint21_linear)"/>
    <path d="M133.58 81.2299C132.138 80.3838 130.954 79.0684 130.193 77.4667C129.897 76.8444 129.103 76.8444 128.807 77.4667C128.045 79.0684 126.861 80.3838 125.42 81.2299C124.86 81.5587 124.86 82.4414 125.42 82.7701C126.861 83.6162 128.045 84.9316 128.807 86.5333C129.103 87.1556 129.897 87.1556 130.193 86.5333C130.955 84.9316 132.138 83.6162 133.58 82.7701C134.14 82.4413 134.14 81.5586 133.58 81.2299Z" fill="url(#paint22_linear)"/>
    <path d="M133.603 81.229C132.24 80.3821 131.121 79.0655 130.4 77.4622C130.122 76.842 129.366 76.848 129.087 77.468C129.083 77.4768 129.079 77.4856 129.075 77.4944C128.891 77.8987 128.931 78.3918 129.169 78.755C129.838 79.7756 130.688 80.6228 131.664 81.2291C132.194 81.558 132.194 82.442 131.664 82.771C130.688 83.3772 129.838 84.2245 129.169 85.245C128.931 85.6081 128.891 86.1013 129.075 86.5056C129.079 86.5144 129.083 86.5231 129.087 86.532C129.366 87.152 130.122 87.158 130.4 86.5378C131.121 84.9345 132.24 83.618 133.603 82.771C134.132 82.4423 134.132 81.5576 133.603 81.229Z" fill="url(#paint23_linear)"/>
    <path d="M73.221 59.293H71.0171C69.7411 59.293 68.7065 58.2586 68.7065 56.9824V54.7784C68.7065 53.8438 67.9864 53.0288 67.0522 53.0008C66.0857 52.9717 65.2928 53.7468 65.2928 54.707V56.9826C65.2928 58.2586 64.2585 59.2932 62.9822 59.2932H60.7783C59.8436 59.2932 59.0287 60.0133 59.0007 60.9475C58.9715 61.9141 59.7467 62.707 60.7068 62.707H62.9824C64.2585 62.707 65.293 63.7414 65.293 65.0176V67.2216C65.293 68.1562 66.0131 68.9712 66.9473 68.9992C67.9138 69.0283 68.7067 68.2532 68.7067 67.293V65.0174C68.7067 63.7414 69.7411 62.7068 71.0174 62.7068H73.2929C74.2531 62.7068 75.028 61.9141 74.9991 60.9473C74.9706 60.0133 74.1557 59.293 73.221 59.293Z" fill="url(#paint24_linear)"/>
    <path d="M137.999 27.6863H135.519C134.084 27.6863 132.92 26.5873 132.92 25.2313V22.8896C132.92 21.8965 132.11 21.0306 131.059 21.0008C129.972 20.9699 129.08 21.7935 129.08 22.8137V25.2315C129.08 26.5873 127.916 27.6866 126.48 27.6866H124.001C122.949 27.6866 122.032 28.4516 122.001 29.4443C121.968 30.4712 122.84 31.3137 123.92 31.3137H126.48C127.916 31.3137 129.08 32.4127 129.08 33.7687V36.1104C129.08 37.1035 129.89 37.9694 130.941 37.9992C132.028 38.0301 132.92 37.2065 132.92 36.1863V33.7685C132.92 32.4127 134.084 31.3134 135.52 31.3134H138.08C139.16 31.3134 140.032 30.4712 139.999 29.444C139.967 28.4516 139.05 27.6863 137.999 27.6863Z" fill="url(#paint25_linear)"/>
    <defs>
        <linearGradient id="paint0_linear" x1="69.9586" y1="98.2528" x2="80.1904" y2="98.2528" gradientUnits="userSpaceOnUse">
            <stop stop-color="#FFC2B5"/>
            <stop offset="1" stop-color="#FF89A8"/>
        </linearGradient>
        <linearGradient id="paint1_linear" x1="67.2316" y1="66.2787" x2="113.377" y2="66.2787" gradientUnits="userSpaceOnUse">
            <stop stop-color="#CDBFBA"/>
            <stop offset="1" stop-color="#766E6E"/>
        </linearGradient>
        <linearGradient id="paint2_linear" x1="68.7005" y1="82.0572" x2="88.7145" y2="82.0572" gradientUnits="userSpaceOnUse">
            <stop stop-color="#9E9797"/>
            <stop offset="1" stop-color="#5B5555"/>
        </linearGradient>
        <linearGradient id="paint3_linear" x1="97.8165" y1="66.2787" x2="110.927" y2="66.2787" gradientUnits="userSpaceOnUse">
            <stop stop-color="#9E9797"/>
            <stop offset="1" stop-color="#5B5555"/>
        </linearGradient>
        <linearGradient id="paint4_linear" x1="71.4602" y1="66.2788" x2="109.137" y2="66.2788" gradientUnits="userSpaceOnUse">
            <stop stop-color="#B0E7C9"/>
            <stop offset="0.593" stop-color="#46CC8D"/>
            <stop offset="1" stop-color="#0AB69F"/>
        </linearGradient>
        <linearGradient id="paint5_linear" x1="67.1529" y1="80.0984" x2="91.7019" y2="80.0984" gradientUnits="userSpaceOnUse">
            <stop stop-color="#46CC8D"/>
            <stop offset="0.5484" stop-color="#0AB69F"/>
            <stop offset="1" stop-color="#01998D"/>
        </linearGradient>
        <linearGradient id="paint6_linear" x1="96.8976" y1="66.2787" x2="108.797" y2="66.2787" gradientUnits="userSpaceOnUse">
            <stop stop-color="#46CC8D"/>
            <stop offset="0.5484" stop-color="#0AB69F"/>
            <stop offset="1" stop-color="#01998D"/>
        </linearGradient>
        <linearGradient id="paint7_linear" x1="71.8134" y1="67.0316" x2="92.141" y2="67.0316" gradientUnits="userSpaceOnUse">
            <stop stop-color="#46CC8D"/>
            <stop offset="0.5484" stop-color="#0AB69F"/>
            <stop offset="1" stop-color="#01998D"/>
        </linearGradient>
        <linearGradient id="paint8_linear" x1="75.7609" y1="65.999" x2="101.757" y2="65.999" gradientUnits="userSpaceOnUse">
            <stop stop-color="#FE99A0"/>
            <stop offset="0.593" stop-color="#FE646F"/>
            <stop offset="1" stop-color="#E41F2D"/>
        </linearGradient>
        <linearGradient id="paint9_linear" x1="81.7209" y1="65.9996" x2="107.784" y2="65.9996" gradientUnits="userSpaceOnUse">
            <stop stop-color="#FE646F"/>
            <stop offset="0.7043" stop-color="#E41F2D"/>
            <stop offset="1" stop-color="#C41926"/>
        </linearGradient>
        <linearGradient id="paint10_linear" x1="76.9672" y1="58.656" x2="101.821" y2="58.656" gradientUnits="userSpaceOnUse">
            <stop stop-color="#FE99A0"/>
            <stop offset="0.593" stop-color="#FE646F"/>
            <stop offset="1" stop-color="#E41F2D"/>
        </linearGradient>
        <linearGradient id="paint11_linear" x1="93.5535" y1="58.656" x2="103.115" y2="58.656" gradientUnits="userSpaceOnUse">
            <stop stop-color="#FE646F"/>
            <stop offset="0.7043" stop-color="#E41F2D"/>
            <stop offset="1" stop-color="#C41926"/>
        </linearGradient>
        <linearGradient id="paint12_linear" x1="82.8781" y1="68.4964" x2="91.3996" y2="68.4964" gradientUnits="userSpaceOnUse">
            <stop stop-color="#FE646F"/>
            <stop offset="0.7043" stop-color="#E41F2D"/>
            <stop offset="1" stop-color="#C41926"/>
        </linearGradient>
        <linearGradient id="paint13_linear" x1="91.9041" y1="68.4965" x2="97.585" y2="68.4965" gradientUnits="userSpaceOnUse">
            <stop stop-color="#FE646F"/>
            <stop offset="0.7043" stop-color="#E41F2D"/>
            <stop offset="1" stop-color="#C41926"/>
        </linearGradient>
        <linearGradient id="paint14_linear" x1="87.2175" y1="68.4965" x2="93.7581" y2="68.4965" gradientUnits="userSpaceOnUse">
            <stop stop-color="#FE646F"/>
            <stop offset="0.7043" stop-color="#E41F2D"/>
            <stop offset="1" stop-color="#C41926"/>
        </linearGradient>
        <linearGradient id="paint15_linear" x1="87.028" y1="58.6559" x2="91.9507" y2="58.6559" gradientUnits="userSpaceOnUse">
            <stop stop-color="#FE646F"/>
            <stop offset="0.7043" stop-color="#E41F2D"/>
            <stop offset="1" stop-color="#C41926"/>
        </linearGradient>
        <linearGradient id="paint16_linear" x1="85.5889" y1="64.3137" x2="95.6315" y2="64.3137" gradientUnits="userSpaceOnUse">
            <stop stop-color="#FFF9DF"/>
            <stop offset="0.593" stop-color="#FFE177"/>
            <stop offset="1" stop-color="#FEB137"/>
        </linearGradient>
        <linearGradient id="paint17_linear" x1="58.9314" y1="82.7341" x2="81.0973" y2="82.7341" gradientUnits="userSpaceOnUse">
            <stop stop-color="#FFDCBD"/>
            <stop offset="0.0028" stop-color="#FFDCBD"/>
            <stop offset="1" stop-color="#FFA9B1"/>
        </linearGradient>
        <linearGradient id="paint18_linear" x1="66.7182" y1="82.7341" x2="90.7781" y2="82.7341" gradientUnits="userSpaceOnUse">
            <stop stop-color="#FFC2B5"/>
            <stop offset="1" stop-color="#FF89A8"/>
        </linearGradient>
        <linearGradient id="paint19_linear" x1="63.6978" y1="104.917" x2="83.8197" y2="104.917" gradientUnits="userSpaceOnUse">
            <stop stop-color="#01D0FB"/>
            <stop offset="0.6075" stop-color="#26A6FE"/>
            <stop offset="1" stop-color="#0182FC"/>
        </linearGradient>
        <linearGradient id="paint20_linear" x1="15.3414" y1="37.5003" x2="72.9679" y2="37.5003" gradientUnits="userSpaceOnUse">
            <stop stop-color="#FEE903"/>
            <stop offset="0.2305" stop-color="#FEE505"/>
            <stop offset="0.4171" stop-color="#FEDB0B"/>
            <stop offset="0.5884" stop-color="#FECA15"/>
            <stop offset="0.7504" stop-color="#FEB223"/>
            <stop offset="0.9046" stop-color="#FE9435"/>
            <stop offset="1" stop-color="#FE7D43"/>
        </linearGradient>
        <linearGradient id="paint21_linear" x1="15.3414" y1="37.5003" x2="72.9679" y2="37.5003" gradientUnits="userSpaceOnUse">
            <stop stop-color="#FEE903"/>
            <stop offset="0.2305" stop-color="#FEE505"/>
            <stop offset="0.4171" stop-color="#FEDB0B"/>
            <stop offset="0.5884" stop-color="#FECA15"/>
            <stop offset="0.7504" stop-color="#FEB223"/>
            <stop offset="0.9046" stop-color="#FE9435"/>
            <stop offset="1" stop-color="#FE7D43"/>
        </linearGradient>
        <linearGradient id="paint22_linear" x1="122.545" y1="82" x2="133.729" y2="82" gradientUnits="userSpaceOnUse">
            <stop stop-color="#FEE903"/>
            <stop offset="0.2305" stop-color="#FEE505"/>
            <stop offset="0.4171" stop-color="#FEDB0B"/>
            <stop offset="0.5884" stop-color="#FECA15"/>
            <stop offset="0.7504" stop-color="#FEB223"/>
            <stop offset="0.9046" stop-color="#FE9435"/>
            <stop offset="1" stop-color="#FE7D43"/>
        </linearGradient>
        <linearGradient id="paint23_linear" x1="122.545" y1="82" x2="133.729" y2="82" gradientUnits="userSpaceOnUse">
            <stop stop-color="#FEE903"/>
            <stop offset="0.2305" stop-color="#FEE505"/>
            <stop offset="0.4171" stop-color="#FEDB0B"/>
            <stop offset="0.5884" stop-color="#FECA15"/>
            <stop offset="0.7504" stop-color="#FEB223"/>
            <stop offset="0.9046" stop-color="#FE9435"/>
            <stop offset="1" stop-color="#FE7D43"/>
        </linearGradient>
        <linearGradient id="paint24_linear" x1="59.0002" y1="60.9999" x2="74.9996" y2="60.9999" gradientUnits="userSpaceOnUse">
            <stop stop-color="#FEE903"/>
            <stop offset="0.2305" stop-color="#FEE505"/>
            <stop offset="0.4171" stop-color="#FEDB0B"/>
            <stop offset="0.5884" stop-color="#FECA15"/>
            <stop offset="0.7504" stop-color="#FEB223"/>
            <stop offset="0.9046" stop-color="#FE9435"/>
            <stop offset="1" stop-color="#FE7D43"/>
        </linearGradient>
        <linearGradient id="paint25_linear" x1="122" y1="29.4999" x2="139.999" y2="29.4999" gradientUnits="userSpaceOnUse">
            <stop stop-color="#FEE903"/>
            <stop offset="0.2305" stop-color="#FEE505"/>
            <stop offset="0.4171" stop-color="#FEDB0B"/>
            <stop offset="0.5884" stop-color="#FECA15"/>
            <stop offset="0.7504" stop-color="#FEB223"/>
            <stop offset="0.9046" stop-color="#FE9435"/>
            <stop offset="1" stop-color="#FE7D43"/>
        </linearGradient>
        <clipPath id="clip0">
            <rect width="74" height="74" fill="white" transform="translate(47.9999 34)"/>
        </clipPath>
    </defs>
</svg>
