<svg width="109" height="91" viewBox="0 0 109 91" fill="none" xmlns="http://www.w3.org/2000/svg">
    <path d="M38.1329 17.3425C31.7261 13.8734 26.4651 8.48064 23.0804 1.91369C21.7653 -0.637896 18.2347 -0.637896 16.9194 1.91369C13.5348 8.48064 8.27361 13.8734 1.86702 17.3425C-0.62234 18.6905 -0.62234 22.3093 1.86702 23.6575C8.27383 27.1266 13.5348 32.5194 16.9196 39.0863C18.2347 41.6379 21.7653 41.6379 23.0806 39.0863C26.4654 32.5194 31.7264 27.1269 38.1332 23.6575C40.6223 22.3095 40.6223 18.6907 38.1329 17.3425Z" fill="url(#paint0_linear)"/>
    <path d="M38.1241 17.3426C31.6272 13.8746 26.2916 8.48454 22.8579 1.92075C21.5273 -0.622471 17.9423 -0.649328 16.6137 1.89506C16.595 1.93102 16.576 1.96699 16.5571 2.00295C15.6686 3.69003 15.8584 5.74585 17.0154 7.25731C20.1985 11.4157 24.2399 14.8687 28.874 17.3424C31.3788 18.6794 31.3788 22.3202 28.874 23.6575C24.2399 26.1311 20.1985 29.5842 17.0154 33.7425C15.8584 35.2542 15.6686 37.31 16.5571 38.9969C16.576 39.0328 16.595 39.0688 16.6137 39.1048C17.9423 41.6494 21.5271 41.6225 22.8577 39.0791C26.2914 32.5153 31.627 27.1252 38.1238 23.6572C40.6254 22.3226 40.6254 18.678 38.1241 17.3426Z" fill="url(#paint1_linear)"/>
    <path d="M102.58 64.2299C101.138 63.3838 99.9546 62.0684 99.1931 60.4667C98.8972 59.8444 98.1028 59.8444 97.8069 60.4667C97.0453 62.0684 95.8616 63.3838 94.4201 64.2299C93.86 64.5587 93.86 65.4414 94.4201 65.7701C95.8616 66.6162 97.0454 67.9316 97.8069 69.5333C98.1028 70.1556 98.8972 70.1556 99.1931 69.5333C99.9547 67.9316 101.138 66.6162 102.58 65.7701C103.14 65.4413 103.14 64.5586 102.58 64.2299Z" fill="url(#paint2_linear)"/>
    <path d="M102.603 64.229C101.24 63.3821 100.121 62.0655 99.4005 60.4622C99.1218 59.842 98.3659 59.848 98.0869 60.468C98.083 60.4768 98.079 60.4856 98.075 60.4944C97.8915 60.8987 97.9312 61.3918 98.1692 61.755C98.838 62.7756 99.6886 63.6228 100.664 64.2291C101.194 64.558 101.194 65.442 100.664 65.771C99.6885 66.3772 98.838 67.2245 98.1692 68.245C97.9311 68.6081 97.8914 69.1013 98.075 69.5056C98.079 69.5144 98.083 69.5231 98.0869 69.532C98.3659 70.152 99.1218 70.158 99.4005 69.5378C100.121 67.9345 101.24 66.618 102.603 65.771C103.132 65.4423 103.132 64.5576 102.603 64.229Z" fill="url(#paint3_linear)"/>
    <path d="M42.2211 42.293H40.0173C38.7412 42.293 37.7066 41.2586 37.7066 39.9824V37.7784C37.7066 36.8438 36.9866 36.0288 36.0524 36.0008C35.0858 35.9717 34.2929 36.7468 34.2929 37.707V39.9826C34.2929 41.2586 33.2586 42.2932 31.9823 42.2932H29.7784C28.8438 42.2932 28.0288 43.0133 28.0008 43.9475C27.9717 44.9141 28.7468 45.707 29.707 45.707H31.9825C33.2586 45.707 34.2932 46.7414 34.2932 48.0176V50.2216C34.2932 51.1562 35.0132 51.9712 35.9474 51.9992C36.914 52.0283 37.7069 51.2532 37.7069 50.293V48.0174C37.7069 46.7414 38.7412 45.7068 40.0175 45.7068H42.2931C43.2532 45.7068 44.0281 44.9141 43.9992 43.9473C43.9708 43.0133 43.1558 42.293 42.2211 42.293Z" fill="url(#paint4_linear)"/>
    <path d="M106.999 10.6863H104.519C103.084 10.6863 101.92 9.58731 101.92 8.23126V5.8896C101.92 4.8965 101.11 4.03059 100.059 4.00084C98.9716 3.96989 98.0795 4.79349 98.0795 5.81367V8.2315C98.0795 9.58731 96.9159 10.6866 95.4801 10.6866H93.0007C91.9492 10.6866 91.0324 11.4516 91.0009 12.4443C90.9681 13.4712 91.8402 14.3137 92.9203 14.3137H95.4804C96.9159 14.3137 98.0798 15.4127 98.0798 16.7687V19.1104C98.0798 20.1035 98.8899 20.9694 99.9409 20.9992C101.028 21.0301 101.92 20.2065 101.92 19.1863V16.7685C101.92 15.4127 103.084 14.3134 104.52 14.3134H107.08C108.16 14.3134 109.032 13.4712 108.999 12.444C108.967 11.4516 108.05 10.6863 106.999 10.6863Z" fill="url(#paint5_linear)"/>
    <g clip-path="url(#clip0)">
        <path d="M73.1008 81.5975V80.0785C73.1008 79.661 73.2938 79.2671 73.6236 79.0113C74.3206 78.4705 74.3206 77.4176 73.6236 76.8769C73.2938 76.6211 73.1008 76.2271 73.1008 75.8097V74.2906C73.1008 73.7594 73.5314 73.3289 74.0625 73.3289C74.5937 73.3289 75.0242 72.8983 75.0242 72.3671V71.2759C75.0242 70.7447 74.5936 70.3141 74.0625 70.3141C73.5313 70.3141 73.1008 69.8834 73.1008 69.3524V66.4501C73.1008 65.9189 73.5314 65.4883 74.0625 65.4883C74.5937 65.4883 75.0242 65.0576 75.0242 64.5266V59.6243H64.1472V84.388C64.1472 85.3694 64.5069 86.3168 65.1581 87.051L68.0479 90.3086C68.8658 91.2307 70.3058 91.2307 71.1237 90.3086L74.0135 87.051C74.6648 86.3168 75.0244 85.3694 75.0244 84.388V83.521C75.0244 82.9898 74.5937 82.5592 74.0626 82.5592C73.5314 82.5593 73.1008 82.1287 73.1008 81.5975Z" fill="url(#paint6_linear)"/>
        <path d="M71.321 59.6243V85.3233C71.321 86.2816 70.5441 87.0584 69.5859 87.0584C68.6277 87.0584 67.8508 86.2816 67.8508 85.3233V59.6243H71.321Z" fill="url(#paint7_linear)"/>
        <path d="M75.0244 71.2759C75.0244 70.7447 74.5937 70.3141 74.0625 70.3141C73.5313 70.3141 73.1008 69.8834 73.1008 69.3524V66.4501C73.1008 65.9189 73.5314 65.4884 74.0625 65.4884C74.5937 65.4884 75.0244 65.0578 75.0244 64.5265V59.6243H64.1472V62.1899L74.861 72.9036C74.9641 72.7504 75.0245 72.5658 75.0245 72.3672V71.2759H75.0244Z" fill="url(#paint8_linear)"/>
        <path d="M69.5859 31.9927C60.9185 31.9927 53.8918 39.0192 53.8918 47.6868C53.8918 56.3543 60.9184 63.3809 69.5859 63.3809C78.2535 63.3809 85.28 56.3543 85.28 47.6868C85.28 39.0192 78.2535 31.9927 69.5859 31.9927ZM69.5859 46.1754C67.1287 46.1754 65.1361 44.1844 65.1361 41.7256C65.1361 39.2683 67.1287 37.2774 69.5859 37.2774C72.0432 37.2774 74.0358 39.2685 74.0358 41.7256C74.0358 44.1844 72.0432 46.1754 69.5859 46.1754Z" fill="url(#paint9_linear)"/>
        <path d="M69.586 34.7361C62.4332 34.7361 56.6353 40.5341 56.6353 47.6868C56.6353 54.8396 62.4332 60.6375 69.586 60.6375C76.7387 60.6375 82.5367 54.8396 82.5367 47.6868C82.5367 40.5341 76.7387 34.7361 69.586 34.7361ZM69.586 46.1755C67.1288 46.1755 65.1361 44.1844 65.1361 41.7256C65.1361 39.2684 67.1288 37.2775 69.586 37.2775C72.0432 37.2775 74.0359 39.2685 74.0359 41.7256C74.0359 44.1844 72.0432 46.1755 69.586 46.1755Z" fill="url(#paint10_linear)"/>
        <path d="M69.5859 31.9927C60.9185 31.9927 53.8918 39.0192 53.8918 47.6868C53.8918 56.3543 60.9184 63.3809 69.5859 63.3809C78.2535 63.3809 85.28 56.3543 85.28 47.6868C85.28 39.0192 78.2535 31.9927 69.5859 31.9927ZM69.5859 46.1754C67.1287 46.1754 65.1361 44.1844 65.1361 41.7256C65.1361 39.2683 67.1287 37.2774 69.5859 37.2774C72.0432 37.2774 74.0358 39.2685 74.0358 41.7256C74.0358 44.1844 72.0432 46.1754 69.5859 46.1754Z" fill="url(#paint11_linear)"/>
        <path d="M43.9204 72.4731L44.9944 71.3991C45.2896 71.104 45.7046 70.9619 46.1187 71.0142C46.9939 71.1247 47.7384 70.3802 47.6278 69.505C47.5756 69.0909 47.7176 68.6759 48.0128 68.3808L49.0868 67.3068C49.4625 66.9311 50.0714 66.9311 50.4469 67.3068C50.8226 67.6824 51.4316 67.6824 51.8071 67.3068L52.5786 66.5353C52.9542 66.1596 52.9542 65.5507 52.5786 65.1751C52.2029 64.7995 52.2029 64.1905 52.5786 63.815L54.6308 61.7627C55.0065 61.3871 55.6155 61.3871 55.991 61.7627C56.3667 62.1384 56.9756 62.1384 57.3511 61.7627L60.8175 58.2963L53.1262 50.605L35.616 68.1151C34.922 68.8091 34.5065 69.7332 34.4478 70.7129L34.1878 75.0598C34.1143 76.2901 35.1324 77.3082 36.3627 77.2347L40.7096 76.9747C41.6893 76.916 42.6134 76.5005 43.3074 75.8065L43.9204 75.1934C44.2961 74.8178 44.2961 74.2089 43.9204 73.8333C43.5448 73.4576 43.5448 72.8488 43.9204 72.4731Z" fill="url(#paint12_linear)"/>
        <path d="M58.1991 55.6771L40.0271 73.8491C39.3495 74.5267 38.251 74.5267 37.5734 73.8491C36.8958 73.1715 36.8958 72.0729 37.5734 71.3953L55.7453 53.2234L58.1991 55.6771Z" fill="url(#paint13_linear)"/>
        <path d="M76.5107 34.9118C70.3819 28.783 60.4448 28.783 54.3159 34.9118C48.1869 41.0406 48.1871 50.9776 54.3159 57.1066C60.4447 63.2355 70.3817 63.2354 76.5107 57.1066C82.6396 50.9778 82.6396 41.0406 76.5107 34.9118ZM66.4821 44.9404C64.7445 43.2028 64.7434 40.386 66.4821 38.6473C68.2196 36.9098 71.0364 36.9111 72.774 38.6485C74.5115 40.386 74.5127 43.2028 72.7751 44.9404C71.0364 46.6791 68.2195 46.6779 66.4821 44.9404Z" fill="url(#paint14_linear)"/>
        <path d="M74.5709 36.8517C69.5131 31.7939 61.3136 31.7939 56.2558 36.8517C51.1979 41.9095 51.1979 50.109 56.2558 55.1669C61.3136 60.2247 69.5131 60.2247 74.5709 55.1669C79.6287 50.109 79.6287 41.9094 74.5709 36.8517ZM66.4821 44.9405C64.7446 43.203 64.7434 40.3862 66.4821 38.6475C68.2197 36.9099 71.0365 36.9112 72.774 38.6486C74.5116 40.3862 74.5127 43.203 72.7752 44.9405C71.0365 46.6792 68.2195 46.6781 66.4821 44.9405Z" fill="url(#paint15_linear)"/>
        <path d="M72.4038 45.2722L82.9883 55.8566C84.4422 53.4767 85.2802 50.6798 85.2802 47.6869C85.2802 45.603 84.8731 43.6144 84.1356 41.7952C82.7664 43.0995 79.3157 45.4625 72.4038 45.2722Z" fill="url(#paint16_linear)"/>
        <path d="M75.51 17C67.7645 17 61.4358 23.1906 61.2122 30.8854C63.2937 30.3096 65.4689 30.17 67.5963 30.4681C68.0152 26.4717 71.404 23.3462 75.51 23.3462C79.8999 23.3462 83.4696 26.9175 83.4696 31.3058C83.4696 34.3884 81.707 37.0681 79.1384 38.3896C78.0501 38.9497 76.8157 39.2654 75.51 39.2654C74.6183 39.2654 73.7615 39.1179 72.9605 38.8465H72.9589C72.0196 38.5276 71.1598 38.0375 70.4141 37.4154C69.0306 37.1663 67.5521 37.5772 66.4827 38.6466C65.7576 39.3717 65.3357 40.2839 65.2166 41.2263C67.13 43.2159 69.6161 44.6516 72.4036 45.2719C73.4047 45.4941 74.4439 45.6114 75.51 45.6114C77.4678 45.6114 79.3351 45.2163 81.0359 44.5009C86.1889 42.3353 89.8158 37.2361 89.8158 31.3057C89.8158 23.4175 83.3982 17 75.51 17V17Z" fill="url(#paint17_linear)"/>
        <path d="M86.5173 31.306C86.5173 25.229 81.591 20.3025 75.5138 20.3025C69.7625 20.3025 65.0446 24.7158 64.5552 30.3402C65.5696 30.2851 66.5883 30.3269 67.5963 30.4682C68.0152 26.4718 71.4039 23.3462 75.5099 23.3462C79.8999 23.3462 83.4696 26.9175 83.4696 31.3059C83.4696 34.3885 81.7069 37.0681 79.1384 38.3897C78.05 38.9498 76.8157 39.2655 75.5099 39.2655C74.6183 39.2655 73.7615 39.1179 72.9604 38.8466H72.9588C72.0196 38.5277 71.1597 38.0375 70.4141 37.4155C69.2281 37.2019 67.9728 37.475 66.9648 38.2307C68.9823 40.7182 72.0618 42.3092 75.514 42.3092C81.591 42.3095 86.5173 37.3831 86.5173 31.306Z" fill="url(#paint18_linear)"/>
    </g>
    <defs>
        <linearGradient id="paint0_linear" x1="-15.6585" y1="20.5003" x2="41.968" y2="20.5003" gradientUnits="userSpaceOnUse">
            <stop stop-color="#FEE903"/>
            <stop offset="0.2305" stop-color="#FEE505"/>
            <stop offset="0.4171" stop-color="#FEDB0B"/>
            <stop offset="0.5884" stop-color="#FECA15"/>
            <stop offset="0.7504" stop-color="#FEB223"/>
            <stop offset="0.9046" stop-color="#FE9435"/>
            <stop offset="1" stop-color="#FE7D43"/>
        </linearGradient>
        <linearGradient id="paint1_linear" x1="-15.6585" y1="20.5003" x2="41.968" y2="20.5003" gradientUnits="userSpaceOnUse">
            <stop stop-color="#FEE903"/>
            <stop offset="0.2305" stop-color="#FEE505"/>
            <stop offset="0.4171" stop-color="#FEDB0B"/>
            <stop offset="0.5884" stop-color="#FECA15"/>
            <stop offset="0.7504" stop-color="#FEB223"/>
            <stop offset="0.9046" stop-color="#FE9435"/>
            <stop offset="1" stop-color="#FE7D43"/>
        </linearGradient>
        <linearGradient id="paint2_linear" x1="91.5452" y1="65" x2="102.73" y2="65" gradientUnits="userSpaceOnUse">
            <stop stop-color="#FEE903"/>
            <stop offset="0.2305" stop-color="#FEE505"/>
            <stop offset="0.4171" stop-color="#FEDB0B"/>
            <stop offset="0.5884" stop-color="#FECA15"/>
            <stop offset="0.7504" stop-color="#FEB223"/>
            <stop offset="0.9046" stop-color="#FE9435"/>
            <stop offset="1" stop-color="#FE7D43"/>
        </linearGradient>
        <linearGradient id="paint3_linear" x1="91.5452" y1="65" x2="102.73" y2="65" gradientUnits="userSpaceOnUse">
            <stop stop-color="#FEE903"/>
            <stop offset="0.2305" stop-color="#FEE505"/>
            <stop offset="0.4171" stop-color="#FEDB0B"/>
            <stop offset="0.5884" stop-color="#FECA15"/>
            <stop offset="0.7504" stop-color="#FEB223"/>
            <stop offset="0.9046" stop-color="#FE9435"/>
            <stop offset="1" stop-color="#FE7D43"/>
        </linearGradient>
        <linearGradient id="paint4_linear" x1="28.0003" y1="43.9999" x2="43.9997" y2="43.9999" gradientUnits="userSpaceOnUse">
            <stop stop-color="#FEE903"/>
            <stop offset="0.2305" stop-color="#FEE505"/>
            <stop offset="0.4171" stop-color="#FEDB0B"/>
            <stop offset="0.5884" stop-color="#FECA15"/>
            <stop offset="0.7504" stop-color="#FEB223"/>
            <stop offset="0.9046" stop-color="#FE9435"/>
            <stop offset="1" stop-color="#FE7D43"/>
        </linearGradient>
        <linearGradient id="paint5_linear" x1="91.0001" y1="12.4999" x2="108.999" y2="12.4999" gradientUnits="userSpaceOnUse">
            <stop stop-color="#FEE903"/>
            <stop offset="0.2305" stop-color="#FEE505"/>
            <stop offset="0.4171" stop-color="#FEDB0B"/>
            <stop offset="0.5884" stop-color="#FECA15"/>
            <stop offset="0.7504" stop-color="#FEB223"/>
            <stop offset="0.9046" stop-color="#FE9435"/>
            <stop offset="1" stop-color="#FE7D43"/>
        </linearGradient>
        <linearGradient id="paint6_linear" x1="64.8232" y1="75.3123" x2="73.5158" y2="75.3123" gradientUnits="userSpaceOnUse">
            <stop stop-color="#FFDA2D"/>
            <stop offset="1" stop-color="#FDBF00"/>
        </linearGradient>
        <linearGradient id="paint7_linear" x1="73.2025" y1="73.3413" x2="67.7011" y2="73.3413" gradientUnits="userSpaceOnUse">
            <stop stop-color="#FFDA2D"/>
            <stop offset="1" stop-color="#FDBF00"/>
        </linearGradient>
        <linearGradient id="paint8_linear" x1="72.7865" y1="68.9589" x2="69.402" y2="60.4445" gradientUnits="userSpaceOnUse">
            <stop stop-color="#FF9100" stop-opacity="0"/>
            <stop offset="1" stop-color="#FF9100"/>
        </linearGradient>
        <linearGradient id="paint9_linear" x1="62.5294" y1="54.7433" x2="94.271" y2="23.0017" gradientUnits="userSpaceOnUse">
            <stop stop-color="#FFDA2D"/>
            <stop offset="1" stop-color="#FDBF00"/>
        </linearGradient>
        <linearGradient id="paint10_linear" x1="75.8095" y1="41.4633" x2="45.7723" y2="71.5005" gradientUnits="userSpaceOnUse">
            <stop stop-color="#FFDA2D"/>
            <stop offset="1" stop-color="#FDBF00"/>
        </linearGradient>
        <linearGradient id="paint11_linear" x1="81.412" y1="59.5128" x2="70.7686" y2="48.8695" gradientUnits="userSpaceOnUse">
            <stop stop-color="#FF9100" stop-opacity="0"/>
            <stop offset="1" stop-color="#FF9100"/>
        </linearGradient>
        <linearGradient id="paint12_linear" x1="42.4916" y1="62.1889" x2="48.6371" y2="68.3344" gradientUnits="userSpaceOnUse">
            <stop stop-color="#FFDA2D"/>
            <stop offset="1" stop-color="#FDBF00"/>
        </linearGradient>
        <linearGradient id="paint13_linear" x1="49.8089" y1="66.7194" x2="45.9194" y2="62.8299" gradientUnits="userSpaceOnUse">
            <stop stop-color="#FFDA2D"/>
            <stop offset="1" stop-color="#FDBF00"/>
        </linearGradient>
        <linearGradient id="paint14_linear" x1="55.4119" y1="46.0248" x2="100.295" y2="46.0248" gradientUnits="userSpaceOnUse">
            <stop stop-color="#FFDA2D"/>
            <stop offset="1" stop-color="#FDBF00"/>
        </linearGradient>
        <linearGradient id="paint15_linear" x1="74.1898" y1="46.0249" x2="31.7175" y2="46.0249" gradientUnits="userSpaceOnUse">
            <stop stop-color="#FFDA2D"/>
            <stop offset="1" stop-color="#FDBF00"/>
        </linearGradient>
        <linearGradient id="paint16_linear" x1="80.6979" y1="50.9294" x2="78.4767" y2="44.1073" gradientUnits="userSpaceOnUse">
            <stop stop-color="#FF9100" stop-opacity="0"/>
            <stop offset="1" stop-color="#FF9100"/>
        </linearGradient>
        <linearGradient id="paint17_linear" x1="61.2122" y1="31.3058" x2="89.8158" y2="31.3058" gradientUnits="userSpaceOnUse">
            <stop stop-color="#0B799D"/>
            <stop offset="1" stop-color="#07485E"/>
        </linearGradient>
        <linearGradient id="paint18_linear" x1="89.7025" y1="45.4934" x2="65.044" y2="20.8349" gradientUnits="userSpaceOnUse">
            <stop stop-color="#0B799D"/>
            <stop offset="1" stop-color="#07485E"/>
        </linearGradient>
        <clipPath id="clip0">
            <rect width="74" height="74" fill="white" transform="translate(25 17)"/>
        </clipPath>
    </defs>
</svg>
