<svg width="2290" height="1328" viewBox="0 0 2290 1328" fill="none" xmlns="http://www.w3.org/2000/svg">
    <path d="M1005.72 1313.26L2268.99 584.707C2296.34 568.335 2296.34 528.769 2268.99 513.762L1541.65 94.9114C1507.47 75.8108 34.1794 -16.5142 0 2.58645C46.0458 225.862 19.9556 784.639 110.048 834.086L897.713 1313.26C930.526 1332.36 972.908 1332.36 1005.72 1313.26Z" fill="#211048"/>
    <path d="M1501.82 940.451L1991.55 658.26C2002.15 651.919 2002.15 636.594 1991.55 630.781L1709.58 468.548C1696.33 461.15 1680.43 461.15 1667.18 468.548L1177.45 750.21C1166.85 756.552 1166.85 771.876 1177.45 777.689L1459.95 940.451C1472.67 947.849 1489.1 947.849 1501.82 940.451Z" fill="url(#paint0_linear)"/>
    <path d="M1206.24 1111.5L1426.92 984.13C1431.69 981.268 1431.69 974.351 1426.92 971.728L1299.86 898.504C1293.89 895.165 1286.73 895.165 1280.76 898.504L1060.08 1025.63C1055.31 1028.49 1055.31 1035.41 1060.08 1038.03L1187.38 1111.5C1193.11 1114.83 1200.51 1114.83 1206.24 1111.5Z" fill="url(#paint1_linear)"/>
    <path d="M1497.88 1210.86L1774.02 1051.36C1779.99 1047.78 1779.99 1039.12 1774.02 1035.83L1615.03 944.136C1607.56 939.955 1598.59 939.955 1591.12 944.136L1314.98 1103.34C1309.01 1106.92 1309.01 1115.58 1314.98 1118.87L1474.27 1210.86C1481.44 1215.05 1490.71 1215.05 1497.88 1210.86Z" fill="url(#paint2_linear)"/>
    <path d="M1044.09 781.645L1339.7 611.045C1346.1 607.212 1346.1 597.947 1339.7 594.433L1169.5 496.354C1161.5 491.881 1151.91 491.881 1143.91 496.354L848.299 666.634C841.9 670.468 841.9 679.733 848.299 683.247L1018.82 781.645C1026.5 786.118 1036.41 786.118 1044.09 781.645Z" fill="url(#paint3_linear)"/>
    <defs>
        <linearGradient id="paint0_linear" x1="1584.5" y1="463" x2="1584.5" y2="946" gradientUnits="userSpaceOnUse">
            <stop stop-color="#0EF4B1"/>
            <stop offset="1" stop-color="#00E58B"/>
        </linearGradient>
        <linearGradient id="paint1_linear" x1="1243.5" y1="896" x2="1243.5" y2="1114" gradientUnits="userSpaceOnUse">
            <stop stop-color="#01CCFF"/>
            <stop offset="1" stop-color="#0193FF"/>
        </linearGradient>
        <linearGradient id="paint2_linear" x1="1544.5" y1="941" x2="1544.5" y2="1214" gradientUnits="userSpaceOnUse">
            <stop stop-color="#FCD000"/>
            <stop offset="0.994792" stop-color="#F4A136"/>
        </linearGradient>
        <linearGradient id="paint3_linear" x1="1094" y1="493" x2="1094" y2="785" gradientUnits="userSpaceOnUse">
            <stop stop-color="#AE43FB"/>
            <stop offset="1" stop-color="#891BFF"/>
        </linearGradient>
    </defs>
</svg>
