<svg width="375" height="775" viewBox="0 0 375 775" fill="none" xmlns="http://www.w3.org/2000/svg">
    <path d="M118.617 767.393L704.594 429.343C717.277 421.746 717.277 403.388 704.594 396.424L347.107 -172.961C331.252 -181.824 -352.146 -224.663 -368 -215.8C-346.641 -112.2 -338.637 522.112 -296.847 545.056L68.5169 767.393C83.7371 776.255 103.396 776.255 118.617 767.393Z" fill="#211048"/>
    <path d="M414.958 268.243L658.054 128.024C663.315 124.873 663.315 117.258 658.054 114.37L518.089 33.7571C511.512 30.081 503.619 30.081 497.042 33.7571L253.946 173.713C248.685 176.864 248.685 184.479 253.946 187.368L394.174 268.243C400.488 271.919 408.644 271.919 414.958 268.243Z" fill="url(#paint0_linear)"/>
    <path d="M268.671 350.782L377.238 288.852C379.587 287.46 379.587 284.097 377.238 282.821L314.729 247.217C311.792 245.594 308.267 245.594 305.33 247.217L196.762 309.031C194.413 310.423 194.413 313.786 196.762 315.062L259.388 350.782C262.208 352.406 265.851 352.406 268.671 350.782Z" fill="url(#paint1_linear)"/>
    <path d="M413.088 401.46L548.797 323.171C551.734 321.412 551.734 317.16 548.797 315.548L470.662 270.539C466.99 268.486 462.584 268.486 458.912 270.539L323.203 348.681C320.266 350.44 320.266 354.692 323.203 356.305L401.485 401.46C405.01 403.513 409.563 403.513 413.088 401.46Z" fill="url(#paint2_linear)"/>
    <path d="M188.295 189.311L334.625 103.427C337.792 101.497 337.792 96.8332 334.625 95.064L250.374 45.6887C246.415 43.4371 241.664 43.4371 237.705 45.6887L91.3755 131.412C88.2082 133.342 88.2082 138.006 91.3755 139.775L175.784 189.311C179.585 191.563 184.494 191.563 188.295 189.311Z" fill="url(#paint3_linear)"/>
    <defs>
        <linearGradient id="paint0_linear" x1="456" y1="31" x2="456" y2="271" gradientUnits="userSpaceOnUse">
            <stop stop-color="#0EF4B1"/>
            <stop offset="1" stop-color="#00E58B"/>
            <stop offset="1" stop-color="#03DA8D"/>
        </linearGradient>
        <linearGradient id="paint1_linear" x1="287" y1="246" x2="287" y2="352" gradientUnits="userSpaceOnUse">
            <stop stop-color="#01CCFF"/>
            <stop offset="1" stop-color="#0193FF"/>
        </linearGradient>
        <linearGradient id="paint2_linear" x1="436" y1="269" x2="436" y2="403" gradientUnits="userSpaceOnUse">
            <stop stop-color="#FCD000"/>
            <stop offset="0.994792" stop-color="#F4A136"/>
        </linearGradient>
        <linearGradient id="paint3_linear" x1="213" y1="44" x2="213" y2="191" gradientUnits="userSpaceOnUse">
            <stop stop-color="#AE43FB"/>
            <stop offset="1" stop-color="#891BFF"/>
        </linearGradient>
    </defs>
</svg>
